<?xml version="1.0" standalone="no"?>
<!DOCTYPE svg PUBLIC "-//W3C//DTD SVG 20010904//EN"
 "http://www.w3.org/TR/2001/REC-SVG-20010904/DTD/svg10.dtd">
<svg version="1.0" xmlns="http://www.w3.org/2000/svg"
 width="700.000000pt" height="700.000000pt" viewBox="0 0 700.000000 700.000000"
 preserveAspectRatio="xMidYMid meet">
<metadata>
Created by potrace 1.14, written by Peter Selinger 2001-2017
</metadata>
<g transform="translate(0.000000,700.000000) scale(0.100000,-0.100000)"
fill="#000000" stroke="none">
<path d="M3170 6989 c-1539 -151 -2805 -1291 -3104 -2794 -54 -276 -61 -347
-61 -695 0 -347 7 -418 61 -695 132 -664 467 -1289 954 -1775 579 -578 1328
-929 2155 -1010 143 -14 509 -14 655 0 1694 165 3018 1500 3161 3187 15 180 6
585 -16 742 -82 586 -281 1095 -610 1565 -232 333 -553 649 -890 878 -164 111
-265 170 -457 262 -342 166 -676 267 -1068 321 -137 20 -635 28 -780 14z m641
-2218 c154 -31 276 -75 384 -139 201 -119 348 -302 414 -517 49 -156 51 -203
51 -1093 l0 -832 -312 2 -313 3 -17 120 c-9 66 -20 135 -23 153 l-6 33 -65
-70 c-117 -127 -248 -208 -411 -257 -76 -23 -112 -27 -261 -32 -195 -5 -308 6
-442 45 -272 78 -474 280 -541 542 -25 97 -27 278 -4 377 48 208 203 397 410
498 215 106 428 136 968 136 l298 0 -6 63 c-22 208 -116 322 -308 373 -70 19
-225 18 -300 -2 -168 -43 -291 -162 -313 -301 l-7 -43 -354 0 -355 0 7 63 c26
231 120 424 281 577 192 182 433 286 754 324 90 11 369 -3 471 -23z m-428
-4728 c-13 -2 -33 -2 -45 0 -13 2 -3 4 22 4 25 0 35 -2 23 -4z"/>
<path d="M3290 3239 c-127 -18 -224 -79 -265 -165 -26 -54 -24 -147 3 -201 43
-83 124 -128 261 -146 111 -14 234 7 324 55 113 61 225 216 276 382 12 37 21
72 21 77 0 11 -544 10 -620 -2z"/>
</g>
</svg>
